<?xml version="1.0" standalone="no"?>
<!DOCTYPE svg PUBLIC "-//W3C//DTD SVG 1.1//EN"
"http://www.w3.org/Graphics/SVG/1.1/DTD/svg11.dtd">

<svg width="568" height="476" view_box="0 0 568 476"
xmlns="http://www.w3.org/2000/svg"
xmlns:link="http://www.w3.org/1999/xlink">\n\n<desc>Généré par Mocodo 2.3.7 le Thu, 15 Oct 2020 00:58:47</desc>

<rect id="frame" x="0" y="0" width="568" height="476" fill="#f7f7f7" stroke="none" stroke-width="0"/>

<!-- Association BELONGS TO -->
<line x1="308" y1="128" x2="192" y2="128" stroke="#de77ae" stroke-width="2"/>
<text x="250" y="145.0" fill="#4d9221" font-family="Verdana" font-size="12">0,1</text>
<line x1="68" y1="128" x2="192" y2="128" stroke="#de77ae" stroke-width="2"/>
<text x="112" y="145.0" fill="#4d9221" font-family="Verdana" font-size="12">0,N</text>
<g id="association-BELONGS TO">
	<path d="M 226 103 a 14 14 90 0 1 14 14 V 128 h -96 V 117 a 14 14 90 0 1 14 -14" fill="#f1b6da" stroke="#f1b6da" stroke-width="0"/>
	<path d="M 240 128.0 v 11 a 14 14 90 0 1 -14 14 H 158 a 14 14 90 0 1 -14 -14 V 128.0 H 96" fill="#fde0ef" stroke="#fde0ef" stroke-width="0"/>
	<rect x="144" y="103" width="96" height="50" fill="none" rx="14" stroke="#de77ae" stroke-width="2"/>
	<line x1="144" y1="128" x2="240" y2="128" stroke="#de77ae" stroke-width="1"/>
	<text x="151" y="120.7" fill="#000000" font-family="Verdana" font-size="12">BELONGS TO</text>
</g>

<!-- Association IS MADE -->
<line x1="192" y1="306" x2="308" y2="306" stroke="#de77ae" stroke-width="2"/>
<text x="247" y="323.0" fill="#4d9221" font-family="Verdana" font-size="12">0,1</text>
<line x1="402" y1="306" x2="308" y2="306" stroke="#de77ae" stroke-width="2"/>
<text x="347" y="323.0" fill="#4d9221" font-family="Verdana" font-size="12">0,N</text>
<g id="association-IS MADE">
	<path d="M 328 281 a 14 14 90 0 1 14 14 V 306 h -68 V 295 a 14 14 90 0 1 14 -14" fill="#f1b6da" stroke="#f1b6da" stroke-width="0"/>
	<path d="M 342 306.0 v 11 a 14 14 90 0 1 -14 14 H 288 a 14 14 90 0 1 -14 -14 V 306.0 H 68" fill="#fde0ef" stroke="#fde0ef" stroke-width="0"/>
	<rect x="274" y="281" width="68" height="50" fill="none" rx="14" stroke="#de77ae" stroke-width="2"/>
	<line x1="274" y1="306" x2="342" y2="306" stroke="#de77ae" stroke-width="1"/>
	<text x="281" y="298.7" fill="#000000" font-family="Verdana" font-size="12">IS MADE</text>
</g>

<!-- Association IS PART OF -->
<line x1="192" y1="306" x2="68" y2="306" stroke="#de77ae" stroke-width="2"/>
<text x="116" y="323.0" fill="#4d9221" font-family="Verdana" font-size="12">1,1</text>
<line x1="68" y1="433" x2="68" y2="306" stroke="#de77ae" stroke-width="2"/>
<text x="73.0" y="391" fill="#4d9221" font-family="Verdana" font-size="12">0,N</text>
<g id="association-IS PART OF">
	<path d="M 96 281 a 14 14 90 0 1 14 14 V 306 h -84 V 295 a 14 14 90 0 1 14 -14" fill="#f1b6da" stroke="#f1b6da" stroke-width="0"/>
	<path d="M 110 306.0 v 11 a 14 14 90 0 1 -14 14 H 40 a 14 14 90 0 1 -14 -14 V 306.0 H 84" fill="#fde0ef" stroke="#fde0ef" stroke-width="0"/>
	<rect x="26" y="281" width="84" height="50" fill="none" rx="14" stroke="#de77ae" stroke-width="2"/>
	<line x1="26" y1="306" x2="110" y2="306" stroke="#de77ae" stroke-width="1"/>
	<text x="33" y="298.7" fill="#000000" font-family="Verdana" font-size="12">IS PART OF</text>
</g>

<!-- Association OWNS -->
<line x1="402" y1="306" x2="510" y2="306" stroke="#de77ae" stroke-width="2"/>
<text x="435" y="323.0" fill="#4d9221" font-family="Verdana" font-size="12">1,1</text>
<line x1="510" y1="128" x2="510" y2="306" stroke="#de77ae" stroke-width="2"/>
<text x="515.0" y="264" fill="#4d9221" font-family="Verdana" font-size="12">0,N</text>
<g id="association-OWNS">
	<path d="M 523 281 a 14 14 90 0 1 14 14 V 306 h -54 V 295 a 14 14 90 0 1 14 -14" fill="#f1b6da" stroke="#f1b6da" stroke-width="0"/>
	<path d="M 537 306.0 v 11 a 14 14 90 0 1 -14 14 H 497 a 14 14 90 0 1 -14 -14 V 306.0 H 54" fill="#fde0ef" stroke="#fde0ef" stroke-width="0"/>
	<rect x="483" y="281" width="54" height="50" fill="none" rx="14" stroke="#de77ae" stroke-width="2"/>
	<line x1="483" y1="306" x2="537" y2="306" stroke="#de77ae" stroke-width="1"/>
	<text x="490" y="298.7" fill="#000000" font-family="Verdana" font-size="12">OWNS</text>
</g>

<!-- Association HAS -->
<line x1="308" y1="433" x2="402" y2="433" stroke="#de77ae" stroke-width="2"/>
<text x="340" y="450.0" fill="#4d9221" font-family="Verdana" font-size="12">0,1</text>
<line x1="402" y1="306" x2="402" y2="433" stroke="#de77ae" stroke-width="2"/>
<text x="407.0" y="357" fill="#4d9221" font-family="Verdana" font-size="12">0,N</text>
<g id="association-HAS">
	<path d="M 408 408 a 14 14 90 0 1 14 14 V 433 h -40 V 422 a 14 14 90 0 1 14 -14" fill="#f1b6da" stroke="#f1b6da" stroke-width="0"/>
	<path d="M 422 433.0 v 11 a 14 14 90 0 1 -14 14 H 396 a 14 14 90 0 1 -14 -14 V 433.0 H 40" fill="#fde0ef" stroke="#fde0ef" stroke-width="0"/>
	<rect x="382" y="408" width="40" height="50" fill="none" rx="14" stroke="#de77ae" stroke-width="2"/>
	<line x1="382" y1="433" x2="422" y2="433" stroke="#de77ae" stroke-width="1"/>
	<text x="389" y="425.7" fill="#000000" font-family="Verdana" font-size="12">HAS</text>
</g>

<!-- Association GROW -->
<line x1="308" y1="128" x2="402" y2="128" stroke="#de77ae" stroke-width="2"/>
<text x="345" y="145.0" fill="#4d9221" font-family="Verdana" font-size="12">0,N</text>
<line x1="402" y1="306" x2="402" y2="128" stroke="#de77ae" stroke-width="2"/>
<text x="407.0" y="264" fill="#4d9221" font-family="Verdana" font-size="12">0,1</text>
<g id="association-GROW">
	<path d="M 415 103 a 14 14 90 0 1 14 14 V 128 h -54 V 117 a 14 14 90 0 1 14 -14" fill="#f1b6da" stroke="#f1b6da" stroke-width="0"/>
	<path d="M 429 128.0 v 11 a 14 14 90 0 1 -14 14 H 389 a 14 14 90 0 1 -14 -14 V 128.0 H 54" fill="#fde0ef" stroke="#fde0ef" stroke-width="0"/>
	<rect x="375" y="103" width="54" height="50" fill="none" rx="14" stroke="#de77ae" stroke-width="2"/>
	<line x1="375" y1="128" x2="429" y2="128" stroke="#de77ae" stroke-width="1"/>
	<text x="382" y="120.7" fill="#000000" font-family="Verdana" font-size="12">GROW</text>
</g>

<!-- Entity USER -->
<g id="entity-USER">
	<g id="frame-USER">
		<rect x="461" y="9" width="98" height="25" fill="#b8e186" stroke="#b8e186" stroke-width="0"/>
		<rect x="461" y="34.0" width="98" height="213" fill="#e6f5d0" stroke="#e6f5d0" stroke-width="0"/>
		<rect x="461" y="9" width="98" height="238" fill="none" stroke="#7fbc41" stroke-width="2"/>
		<line x1="461" y1="34" x2="559" y2="34" stroke="#7fbc41" stroke-width="1"/>
	</g>
	<text x="493" y="26.7" fill="#000000" font-family="Verdana" font-size="12">USER</text>
	<text x="466" y="51.7" fill="#000000" font-family="Verdana" font-size="12">first name</text>
	<line x1="466" y1="54" x2="528" y2="54" stroke="#000000" stroke-width="1"/>
	<text x="466" y="68.7" fill="#000000" font-family="Verdana" font-size="12">last name</text>
	<text x="466" y="85.7" fill="#000000" font-family="Verdana" font-size="12">street name</text>
	<text x="466" y="102.7" fill="#000000" font-family="Verdana" font-size="12">street number</text>
	<text x="466" y="119.7" fill="#000000" font-family="Verdana" font-size="12">town</text>
	<text x="466" y="136.8" fill="#000000" font-family="Verdana" font-size="12">postcode</text>
	<text x="466" y="153.8" fill="#000000" font-family="Verdana" font-size="12">department</text>
	<text x="466" y="170.8" fill="#000000" font-family="Verdana" font-size="12">country</text>
	<text x="466" y="187.8" fill="#000000" font-family="Verdana" font-size="12">email</text>
	<text x="466" y="204.8" fill="#000000" font-family="Verdana" font-size="12">password</text>
	<text x="466" y="221.8" fill="#000000" font-family="Verdana" font-size="12">nickname</text>
	<text x="466" y="238.8" fill="#000000" font-family="Verdana" font-size="12">profile picture</text>
</g>

<!-- Entity FAMILY -->
<g id="entity-FAMILY">
	<g id="frame-FAMILY">
		<rect x="29" y="86" width="78" height="25" fill="#b8e186" stroke="#b8e186" stroke-width="0"/>
		<rect x="29" y="111.0" width="78" height="59" fill="#e6f5d0" stroke="#e6f5d0" stroke-width="0"/>
		<rect x="29" y="86" width="78" height="84" fill="none" stroke="#7fbc41" stroke-width="2"/>
		<line x1="29" y1="111" x2="107" y2="111" stroke="#7fbc41" stroke-width="1"/>
	</g>
	<text x="45" y="103.7" fill="#000000" font-family="Verdana" font-size="12">FAMILY</text>
	<text x="34" y="128.8" fill="#000000" font-family="Verdana" font-size="12">name</text>
	<line x1="34" y1="131" x2="69" y2="131" stroke="#000000" stroke-width="1"/>
	<text x="34" y="145.8" fill="#000000" font-family="Verdana" font-size="12">picture</text>
	<text x="34" y="162.8" fill="#000000" font-family="Verdana" font-size="12">description</text>
</g>

<!-- Entity VARIETY -->
<g id="entity-VARIETY">
	<g id="frame-VARIETY">
		<rect x="276" y="94" width="64" height="25" fill="#b8e186" stroke="#b8e186" stroke-width="0"/>
		<rect x="276" y="119.0" width="64" height="43" fill="#e6f5d0" stroke="#e6f5d0" stroke-width="0"/>
		<rect x="276" y="94" width="64" height="68" fill="none" stroke="#7fbc41" stroke-width="2"/>
		<line x1="276" y1="119" x2="340" y2="119" stroke="#7fbc41" stroke-width="1"/>
	</g>
	<text x="281" y="111.7" fill="#000000" font-family="Verdana" font-size="12">VARIETY</text>
	<text x="281" y="136.8" fill="#000000" font-family="Verdana" font-size="12">name</text>
	<line x1="281" y1="139" x2="316" y2="139" stroke="#000000" stroke-width="1"/>
	<text x="281" y="153.8" fill="#000000" font-family="Verdana" font-size="12">picture</text>
</g>

<!-- Entity PHOTO -->
<g id="entity-PHOTO">
	<g id="frame-PHOTO">
		<rect x="281" y="399" width="54" height="25" fill="#b8e186" stroke="#b8e186" stroke-width="0"/>
		<rect x="281" y="424.0" width="54" height="43" fill="#e6f5d0" stroke="#e6f5d0" stroke-width="0"/>
		<rect x="281" y="399" width="54" height="68" fill="none" stroke="#7fbc41" stroke-width="2"/>
		<line x1="281" y1="424" x2="335" y2="424" stroke="#7fbc41" stroke-width="1"/>
	</g>
	<text x="286" y="416.7" fill="#000000" font-family="Verdana" font-size="12">PHOTO</text>
	<text x="286" y="441.8" fill="#000000" font-family="Verdana" font-size="12">url</text>
	<line x1="286" y1="444" x2="303" y2="444" stroke="#000000" stroke-width="1"/>
	<text x="286" y="458.8" fill="#000000" font-family="Verdana" font-size="12">date</text>
</g>

<!-- Entity BOARD -->
<g id="entity-BOARD">
	<g id="frame-BOARD">
		<rect x="374" y="272" width="56" height="25" fill="#b8e186" stroke="#b8e186" stroke-width="0"/>
		<rect x="374" y="297.0" width="56" height="43" fill="#e6f5d0" stroke="#e6f5d0" stroke-width="0"/>
		<rect x="374" y="272" width="56" height="68" fill="none" stroke="#7fbc41" stroke-width="2"/>
		<line x1="374" y1="297" x2="430" y2="297" stroke="#7fbc41" stroke-width="1"/>
	</g>
	<text x="379" y="289.7" fill="#000000" font-family="Verdana" font-size="12">BOARD</text>
	<text x="379" y="314.8" fill="#000000" font-family="Verdana" font-size="12">name</text>
	<line x1="379" y1="317" x2="414" y2="317" stroke="#000000" stroke-width="1"/>
	<text x="379" y="331.8" fill="#000000" font-family="Verdana" font-size="12">active</text>
</g>

<!-- Entity OPERATION -->
<g id="entity-OPERATION">
	<g id="frame-OPERATION">
		<rect x="142" y="238" width="100" height="25" fill="#b8e186" stroke="#b8e186" stroke-width="0"/>
		<rect x="142" y="263.0" width="100" height="111" fill="#e6f5d0" stroke="#e6f5d0" stroke-width="0"/>
		<rect x="142" y="238" width="100" height="136" fill="none" stroke="#7fbc41" stroke-width="2"/>
		<line x1="142" y1="263" x2="242" y2="263" stroke="#7fbc41" stroke-width="1"/>
	</g>
	<text x="155" y="255.7" fill="#000000" font-family="Verdana" font-size="12">OPERATION</text>
	<text x="147" y="280.7" fill="#000000" font-family="Verdana" font-size="12">date</text>
	<line x1="147" y1="283" x2="175" y2="283" stroke="#000000" stroke-width="1"/>
	<text x="147" y="297.7" fill="#000000" font-family="Verdana" font-size="12">operation type</text>
	<line x1="147" y1="300" x2="236" y2="300" stroke="#000000" stroke-width="1"/>
	<text x="147" y="314.8" fill="#000000" font-family="Verdana" font-size="12">quantity</text>
	<text x="147" y="331.8" fill="#000000" font-family="Verdana" font-size="12">product name</text>
	<text x="147" y="348.8" fill="#000000" font-family="Verdana" font-size="12">maker</text>
	<text x="147" y="365.8" fill="#000000" font-family="Verdana" font-size="12">comment</text>
</g>

<!-- Entity OPERATION TYPE -->
<g id="entity-OPERATION TYPE">
	<g id="frame-OPERATION TYPE">
		<rect x="9" y="399" width="118" height="25" fill="#b8e186" stroke="#b8e186" stroke-width="0"/>
		<rect x="9" y="424.0" width="118" height="43" fill="#e6f5d0" stroke="#e6f5d0" stroke-width="0"/>
		<rect x="9" y="399" width="118" height="68" fill="none" stroke="#7fbc41" stroke-width="2"/>
		<line x1="9" y1="424" x2="127" y2="424" stroke="#7fbc41" stroke-width="1"/>
	</g>
	<text x="14" y="416.7" fill="#000000" font-family="Verdana" font-size="12">OPERATION TYPE</text>
	<text x="14" y="441.8" fill="#000000" font-family="Verdana" font-size="12">name</text>
	<line x1="14" y1="444" x2="49" y2="444" stroke="#000000" stroke-width="1"/>
	<text x="14" y="458.8" fill="#000000" font-family="Verdana" font-size="12">description</text>
</g>
</svg>